<svg width="77" height="18" viewBox="0 0 77 18" fill="none" xmlns="http://www.w3.org/2000/svg">
<g clip-path="url(#clip0_6825_73436)">
<path d="M13.0673 4.55256C12.9388 3.85935 12.6913 3.27387 12.3297 2.79612C11.968 2.31837 11.4493 1.95771 10.7783 1.70479C10.1074 1.45654 9.22703 1.33008 8.14681 1.33008H0V6.70244H4.28279V4.52446H6.50032C7.07612 4.52446 7.52343 4.55256 7.85178 4.60877C8.18012 4.66497 8.42757 4.77739 8.58937 4.946C8.75116 5.11462 8.85585 5.36287 8.89868 5.68605C8.94151 6.00924 8.96054 6.43078 8.96054 6.946C8.96054 7.46123 8.93675 7.87809 8.88916 8.19191C8.84158 8.50572 8.73213 8.74928 8.57033 8.9179C8.40854 9.08652 8.15633 9.20362 7.81847 9.26919C7.4806 9.33476 7.01901 9.36755 6.42894 9.36755H4.28755V7.27387H0V17.9952H4.28279V12.5666H8.07543C9.20799 12.5666 10.1169 12.4308 10.8069 12.1544C11.4969 11.8781 12.0156 11.494 12.3677 10.9928C12.7199 10.4917 12.9578 9.89682 13.0815 9.21298C13.2053 8.52914 13.2671 7.77036 13.2671 6.946C13.2671 6.04202 13.2005 5.24109 13.072 4.54788H13.0673V4.55256Z" fill="#D10000"/>
<path d="M19.6138 0H15.5547V3.12412H19.6138V0Z" fill="#D10000"/>
<path d="M19.5932 5.64453H15.6055V18.0005H19.5932V5.64453Z" fill="#D10000"/>
<path d="M21.4141 18.0005L25.6207 11.7242L21.5616 5.64453H25.9157L28.1333 9.15741H28.3046L30.4936 5.64453H34.605L30.5697 11.7007L34.7764 18.0005H30.446L28.0571 14.2675H27.862L25.5493 18.0005H21.4141Z" fill="#D10000"/>
<path d="M38.7408 18.0005L35.543 5.64453H39.4831L41.2819 14.0989H41.5056L43.6945 5.64453H47.3349L49.5524 14.0989H49.7999L51.5463 5.64453H55.3866L52.1887 18.0005H47.3397L45.5932 11.5321H45.3458L43.6232 18.0005H38.7408Z" fill="#D10000"/>
<path d="M61.3834 0H57.3242V3.12412H61.3834V0Z" fill="#D10000"/>
<path d="M61.3588 5.64453H57.3711V18.0005H61.3588V5.64453Z" fill="#D10000"/>
<path d="M64.411 18V0H68.3512V10.37H69.1126L72.3865 5.64403H76.5932L72.3342 11.555L76.6645 18H72.2818L69.1078 13.3255H68.3464V18H64.4062H64.411Z" fill="#D10000"/>
</g>
<defs>
<clipPath id="clip0_6825_73436">
<rect width="76.6667" height="18" fill="white"/>
</clipPath>
</defs>
</svg>
